<svg xmlns="http://www.w3.org/2000/svg" xmlns:xlink="http://www.w3.org/1999/xlink" width="160" viewBox="0 0 120 30.000001" height="40" preserveAspectRatio="xMidYMid meet"><defs><g></g><clipPath id="07a668c023"><path d="M 22 1.464844 L 37 1.464844 L 37 7 L 22 7 Z M 22 1.464844 " clip-rule="nonzero"></path></clipPath><clipPath id="4ea50d3fc8"><path d="M 2.863281 3 L 37 3 L 37 26.140625 L 2.863281 26.140625 Z M 2.863281 3 " clip-rule="nonzero"></path></clipPath><clipPath id="6d80a372f0"><path d="M 0.4375 3 L 7 3 L 7 10 L 0.4375 10 Z M 0.4375 3 " clip-rule="nonzero"></path></clipPath><clipPath id="8efc09a24b"><path d="M 13 0.414062 L 20 0.414062 L 20 10 L 13 10 Z M 13 0.414062 " clip-rule="nonzero"></path></clipPath><clipPath id="d19fe217b4"><rect x="0" width="74" y="0" height="13"></rect></clipPath><clipPath id="196bd22daa"><path d="M 0.246094 2 L 4 2 L 4 6 L 0.246094 6 Z M 0.246094 2 " clip-rule="nonzero"></path></clipPath><clipPath id="d07d505d2b"><path d="M 21 0.5625 L 24 0.5625 L 24 6 L 21 6 Z M 21 0.5625 " clip-rule="nonzero"></path></clipPath><clipPath id="538a76bd58"><rect x="0" width="62" y="0" height="8"></rect></clipPath></defs><path fill="#b72025" d="M 41.476562 6.035156 C 41.507812 6.535156 41.792969 6.785156 42.230469 6.769531 C 42.648438 6.757812 42.921875 6.46875 42.917969 6.050781 C 42.914062 5.613281 42.671875 5.316406 42.191406 5.324219 C 41.71875 5.328125 41.503906 5.609375 41.476562 6.035156 Z M 22.789062 9.195312 C 22.789062 8.90625 22.789062 8.621094 22.789062 8.339844 C 23.015625 8.222656 23.246094 8.277344 23.464844 8.277344 C 27.050781 8.273438 30.636719 8.269531 34.222656 8.285156 C 34.617188 8.285156 34.894531 8.199219 35.148438 7.863281 C 35.671875 7.179688 36.261719 6.550781 36.804688 5.886719 C 37.003906 5.640625 37.210938 5.539062 37.535156 5.550781 C 38.375 5.574219 39.214844 5.550781 40.054688 5.5625 C 40.355469 5.566406 40.558594 5.53125 40.734375 5.207031 C 41.152344 4.449219 41.964844 4.148438 42.722656 4.382812 C 43.429688 4.601562 43.957031 5.3125 43.953125 6.042969 C 43.949219 6.816406 43.429688 7.472656 42.644531 7.691406 C 41.875 7.910156 41.160156 7.625 40.734375 6.867188 C 40.589844 6.605469 40.433594 6.515625 40.167969 6.546875 C 40.144531 6.550781 40.125 6.546875 40.105469 6.546875 C 39.246094 6.558594 38.269531 6.316406 37.558594 6.648438 C 36.851562 6.976562 36.378906 7.859375 35.863281 8.542969 C 35.460938 9.078125 35.015625 9.285156 34.328125 9.277344 C 30.699219 9.242188 27.074219 9.261719 23.449219 9.257812 C 23.230469 9.257812 22.996094 9.324219 22.789062 9.195312 " fill-opacity="1" fill-rule="nonzero"></path><path fill="#b72025" d="M 37.320312 10.726562 C 36.886719 10.792969 36.59375 11.023438 36.597656 11.476562 C 36.601562 11.925781 36.878906 12.203125 37.328125 12.199219 C 37.777344 12.195312 38.050781 11.914062 38.050781 11.464844 C 38.054688 11.007812 37.761719 10.78125 37.320312 10.726562 Z M 22.796875 11.957031 C 22.796875 11.597656 22.796875 11.316406 22.796875 10.996094 C 27.09375 10.996094 31.371094 10.996094 35.628906 10.996094 C 36.183594 9.972656 36.921875 9.570312 37.753906 9.800781 C 38.519531 10.007812 39.042969 10.6875 39.046875 11.464844 C 39.046875 12.253906 38.488281 12.96875 37.710938 13.160156 C 36.898438 13.363281 36.152344 12.9375 35.640625 11.957031 C 31.382812 11.957031 27.105469 11.957031 22.796875 11.957031 " fill-opacity="1" fill-rule="nonzero"></path><g clip-path="url(#07a668c023)"><path fill="#b72025" d="M 35.054688 2.589844 C 34.542969 2.605469 34.28125 2.886719 34.28125 3.320312 C 34.28125 3.769531 34.59375 4.050781 35.039062 4.035156 C 35.441406 4.019531 35.730469 3.789062 35.730469 3.328125 C 35.730469 2.855469 35.476562 2.625 35.054688 2.589844 Z M 22.742188 6.546875 C 22.742188 6.191406 22.742188 5.929688 22.742188 5.652344 C 22.921875 5.476562 23.160156 5.5625 23.371094 5.5625 C 26.195312 5.554688 29.019531 5.558594 31.84375 5.558594 C 32.6875 5.558594 33.53125 4.5 33.332031 3.691406 C 33.160156 2.980469 33.507812 2.183594 34.160156 1.808594 C 34.757812 1.460938 35.636719 1.554688 36.164062 2.019531 C 36.699219 2.492188 36.878906 3.3125 36.597656 3.976562 C 36.292969 4.679688 35.554688 5.171875 34.832031 5.003906 C 34.3125 4.886719 34.023438 5.019531 33.804688 5.453125 C 33.335938 6.382812 32.59375 6.605469 31.570312 6.574219 C 28.871094 6.492188 26.167969 6.546875 23.46875 6.546875 C 23.246094 6.546875 23.023438 6.546875 22.742188 6.546875 " fill-opacity="1" fill-rule="nonzero"></path></g><path fill="#b72025" d="M 14.234375 8.023438 C 14.234375 7.023438 14.234375 6.0625 14.234375 5.066406 C 15.230469 5.066406 16.1875 5.066406 17.199219 5.066406 C 17.199219 6.042969 17.199219 7 17.199219 8.023438 C 16.242188 8.023438 15.265625 8.023438 14.234375 8.023438 " fill-opacity="1" fill-rule="nonzero"></path><path fill="#b72025" d="M 15.476562 8.933594 C 16.496094 8.933594 17.429688 8.933594 18.414062 8.933594 C 18.414062 9.941406 18.414062 10.917969 18.414062 11.933594 C 17.441406 11.933594 16.484375 11.933594 15.476562 11.933594 C 15.476562 10.949219 15.476562 9.96875 15.476562 8.933594 " fill-opacity="1" fill-rule="nonzero"></path><path fill="#b72025" d="M 21.265625 15.359375 C 20.269531 15.359375 19.289062 15.359375 18.277344 15.359375 C 18.277344 14.371094 18.277344 13.410156 18.277344 12.390625 C 19.253906 12.390625 20.230469 12.390625 21.265625 12.390625 C 21.265625 13.367188 21.265625 14.34375 21.265625 15.359375 " fill-opacity="1" fill-rule="nonzero"></path><path fill="#b72025" d="M 13.410156 13.257812 C 14.21875 13.257812 15.019531 13.257812 15.882812 13.257812 C 15.882812 14.058594 15.882812 14.855469 15.882812 15.722656 C 15.101562 15.722656 14.28125 15.722656 13.410156 15.722656 C 13.410156 14.9375 13.410156 14.113281 13.410156 13.257812 " fill-opacity="1" fill-rule="nonzero"></path><path fill="#b72025" d="M 13.339844 12.539062 C 12.488281 12.539062 11.691406 12.539062 10.847656 12.539062 C 10.847656 11.695312 10.847656 10.878906 10.847656 10.023438 C 11.671875 10.023438 12.488281 10.023438 13.339844 10.023438 C 13.339844 10.847656 13.339844 11.648438 13.339844 12.539062 " fill-opacity="1" fill-rule="nonzero"></path><path fill="#b72025" d="M 11.753906 13.585938 C 11.753906 14.441406 11.753906 15.21875 11.753906 16.058594 C 10.902344 16.058594 10.0625 16.058594 9.199219 16.058594 C 9.199219 15.222656 9.199219 14.421875 9.199219 13.585938 C 10.046875 13.585938 10.867188 13.585938 11.753906 13.585938 " fill-opacity="1" fill-rule="nonzero"></path><g clip-path="url(#4ea50d3fc8)"><path fill="#b72025" d="M 25.441406 23.664062 C 25.441406 24.007812 25.164062 24.285156 24.820312 24.285156 L 14.960938 24.285156 C 14.617188 24.285156 14.339844 24.007812 14.339844 23.664062 C 14.339844 23.320312 14.617188 23.039062 14.960938 23.039062 L 24.820312 23.039062 C 25.164062 23.039062 25.441406 23.320312 25.441406 23.664062 Z M 22.476562 25.199219 C 22.457031 25.472656 22.199219 25.480469 21.980469 25.480469 C 20.46875 25.480469 18.960938 25.484375 17.453125 25.480469 C 17.203125 25.480469 16.917969 25.464844 16.945312 25.132812 C 16.964844 24.875 17.214844 24.839844 17.445312 24.839844 C 18.226562 24.84375 19.007812 24.84375 19.789062 24.84375 C 20.515625 24.84375 21.242188 24.84375 21.96875 24.839844 C 22.230469 24.839844 22.496094 24.871094 22.476562 25.199219 Z M 35.988281 23.636719 C 35.28125 22.78125 34.585938 21.917969 33.851562 21.089844 C 33.507812 20.703125 33.371094 20.300781 33.378906 19.78125 C 33.410156 18.03125 33.390625 16.285156 33.390625 14.507812 L 31.640625 14.507812 C 31.640625 15.679688 31.644531 16.808594 31.640625 17.933594 C 31.636719 19.039062 31.296875 19.398438 30.1875 19.402344 C 23.214844 19.410156 16.242188 19.410156 9.269531 19.398438 C 8.089844 19.398438 7.792969 19.070312 7.792969 17.886719 C 7.792969 13.859375 7.792969 9.832031 7.792969 5.804688 C 7.792969 4.496094 8.082031 4.222656 9.425781 4.222656 C 13.074219 4.222656 16.722656 4.222656 20.371094 4.214844 C 20.472656 4.214844 20.578125 4.226562 20.679688 4.234375 C 20.988281 4.25 21.253906 4.011719 21.269531 3.703125 C 21.269531 3.699219 21.269531 3.695312 21.269531 3.695312 C 21.285156 3.378906 21.027344 3.113281 20.710938 3.113281 C 20.601562 3.113281 20.492188 3.113281 20.386719 3.113281 C 16.304688 3.113281 12.222656 3.113281 8.140625 3.117188 C 6.257812 3.117188 6.019531 3.359375 6.019531 5.28125 C 6.019531 10.144531 6.019531 15.011719 6.019531 19.875 C 6.019531 20.191406 6.0625 20.507812 5.816406 20.792969 C 4.9375 21.804688 4.074219 22.832031 3.207031 23.855469 C 2.890625 24.230469 2.863281 24.78125 3.167969 25.167969 C 3.664062 25.796875 4.308594 26.117188 5.222656 26.113281 C 14.898438 26.089844 24.574219 26.101562 34.25 26.09375 C 34.597656 26.09375 34.960938 26.066406 35.289062 25.957031 C 36.390625 25.589844 36.707031 24.507812 35.988281 23.636719 " fill-opacity="1" fill-rule="nonzero"></path></g><g transform="matrix(1, 0, 0, 1, 44, 4)"><g clip-path="url(#d19fe217b4)"><g clip-path="url(#6d80a372f0)"><g fill="#b72025" fill-opacity="1"><g transform="translate(0.727301, 9.251067)"><g><path d="M 5.953125 -4.171875 L 4.625 -4.171875 L 4.625 -4.78125 L 4.125 -4.78125 L 4.125 -1.28125 L 4.671875 -1.28125 L 4.671875 0 L 1.40625 0 L 1.40625 -1.28125 L 1.953125 -1.28125 L 1.953125 -4.78125 L 1.453125 -4.78125 L 1.453125 -4.171875 L 0.109375 -4.171875 L 0.109375 -6.046875 L 5.953125 -6.046875 Z M 5.953125 -4.171875 "></path></g></g></g></g><g fill="#b72025" fill-opacity="1"><g transform="translate(6.801919, 9.251067)"><g><path d="M 6.375 -4.78125 L 5.984375 -4.78125 L 5.984375 -1.28125 L 6.375 -1.28125 L 6.375 0 L 3.4375 0 L 3.4375 -1.28125 L 3.8125 -1.28125 L 3.8125 -2.5625 L 2.71875 -2.5625 L 2.71875 -1.28125 L 3.09375 -1.28125 L 3.09375 0 L 0.15625 0 L 0.15625 -1.28125 L 0.546875 -1.28125 L 0.546875 -4.78125 L 0.15625 -4.78125 L 0.15625 -6.046875 L 3.09375 -6.046875 L 3.09375 -4.78125 L 2.71875 -4.78125 L 2.71875 -3.59375 L 3.8125 -3.59375 L 3.8125 -4.78125 L 3.4375 -4.78125 L 3.4375 -6.046875 L 6.375 -6.046875 Z M 6.375 -4.78125 "></path></g></g></g><g clip-path="url(#8efc09a24b)"><g fill="#b72025" fill-opacity="1"><g transform="translate(13.343816, 9.251067)"><g><path d="M 5.859375 -1.28125 L 6.171875 -1.28125 L 6.171875 0 L 3.125 0 L 3.125 -1.28125 L 3.59375 -1.28125 L 3.46875 -1.90625 L 2.40625 -1.90625 L 2.28125 -1.28125 L 2.75 -1.28125 L 2.75 0 L 0.09375 0 L 0.09375 -1.28125 L 0.40625 -1.28125 L 1.71875 -6.046875 L 4.546875 -6.046875 Z M 2.578125 -2.71875 L 3.296875 -2.71875 L 2.984375 -4.265625 L 2.90625 -4.265625 Z M 2.359375 -7.859375 L 2.359375 -7.984375 L 2.984375 -8.8125 L 4.3125 -8.8125 L 4.3125 -8.609375 L 3.296875 -7.859375 Z M 3.140625 -6.46875 C 2.660156 -6.46875 2.273438 -6.546875 1.984375 -6.703125 C 1.703125 -6.867188 1.5625 -7.117188 1.5625 -7.453125 L 1.5625 -7.609375 L 2.734375 -7.609375 L 2.734375 -7.453125 C 2.734375 -7.222656 2.867188 -7.109375 3.140625 -7.109375 C 3.410156 -7.109375 3.546875 -7.222656 3.546875 -7.453125 L 3.546875 -7.609375 L 4.71875 -7.609375 L 4.71875 -7.453125 C 4.71875 -7.117188 4.570312 -6.867188 4.28125 -6.703125 C 4 -6.546875 3.617188 -6.46875 3.140625 -6.46875 Z M 3.140625 -6.46875 "></path></g></g></g></g><g fill="#b72025" fill-opacity="1"><g transform="translate(19.620924, 9.251067)"><g><path d="M 4.640625 -6.046875 L 7.1875 -6.046875 L 7.1875 -4.78125 L 6.796875 -4.78125 L 6.796875 0 L 4.609375 0 L 2.328125 -3.515625 L 2.328125 -1.28125 L 2.703125 -1.28125 L 2.703125 0 L 0.15625 0 L 0.15625 -1.28125 L 0.546875 -1.28125 L 0.546875 -4.78125 L 0.15625 -4.78125 L 0.15625 -6.046875 L 2.96875 -6.046875 L 5.015625 -2.9375 L 5.015625 -4.78125 L 4.640625 -4.78125 Z M 4.640625 -6.046875 "></path></g></g></g><g fill="#b72025" fill-opacity="1"><g transform="translate(26.957192, 9.251067)"><g><path d="M 6.015625 -1.953125 L 5.640625 -1.953125 L 5.640625 -0.390625 C 5.410156 -0.253906 5.070312 -0.132812 4.625 -0.03125 C 4.1875 0.0625 3.71875 0.109375 3.21875 0.109375 C 2.25 0.109375 1.488281 -0.144531 0.9375 -0.65625 C 0.382812 -1.164062 0.109375 -1.957031 0.109375 -3.03125 C 0.109375 -4.125 0.378906 -4.914062 0.921875 -5.40625 C 1.472656 -5.90625 2.257812 -6.15625 3.28125 -6.15625 C 3.769531 -6.15625 4.226562 -6.101562 4.65625 -6 C 5.09375 -5.894531 5.421875 -5.78125 5.640625 -5.65625 L 5.640625 -3.796875 L 3.6875 -3.796875 L 3.6875 -4.15625 C 3.6875 -4.375 3.640625 -4.53125 3.546875 -4.625 C 3.460938 -4.726562 3.320312 -4.78125 3.125 -4.78125 C 2.925781 -4.78125 2.78125 -4.726562 2.6875 -4.625 C 2.59375 -4.53125 2.546875 -4.375 2.546875 -4.15625 L 2.546875 -1.890625 C 2.546875 -1.671875 2.59375 -1.515625 2.6875 -1.421875 C 2.78125 -1.328125 2.925781 -1.28125 3.125 -1.28125 C 3.320312 -1.28125 3.460938 -1.328125 3.546875 -1.421875 C 3.640625 -1.515625 3.6875 -1.671875 3.6875 -1.890625 L 3.6875 -1.953125 L 3.265625 -1.953125 L 3.265625 -3.109375 L 6.015625 -3.109375 Z M 6.015625 -1.953125 "></path></g></g></g><g fill="#b72025" fill-opacity="1"><g transform="translate(33.047385, 9.251067)"><g></g></g></g><g fill="#b72025" fill-opacity="1"><g transform="translate(35.383777, 9.251067)"><g><path d="M 5.953125 -4.171875 L 4.625 -4.171875 L 4.625 -4.78125 L 4.125 -4.78125 L 4.125 -1.28125 L 4.671875 -1.28125 L 4.671875 0 L 1.40625 0 L 1.40625 -1.28125 L 1.953125 -1.28125 L 1.953125 -4.78125 L 1.453125 -4.78125 L 1.453125 -4.171875 L 0.109375 -4.171875 L 0.109375 -6.046875 L 5.953125 -6.046875 Z M 5.953125 -4.171875 "></path></g></g></g><g fill="#b72025" fill-opacity="1"><g transform="translate(41.458394, 9.251067)"><g><path d="M 0.15625 0 L 0.15625 -1.28125 L 0.546875 -1.28125 L 0.546875 -4.78125 L 0.15625 -4.78125 L 0.15625 -6.046875 L 3.109375 -6.046875 L 3.109375 -4.78125 L 2.71875 -4.78125 L 2.71875 -1.28125 L 3.109375 -1.28125 L 3.109375 0 Z M 0.15625 0 "></path></g></g></g><g fill="#b72025" fill-opacity="1"><g transform="translate(44.729341, 9.251067)"><g><path d="M 4.640625 -6.046875 L 7.1875 -6.046875 L 7.1875 -4.78125 L 6.796875 -4.78125 L 6.796875 0 L 4.609375 0 L 2.328125 -3.515625 L 2.328125 -1.28125 L 2.703125 -1.28125 L 2.703125 0 L 0.15625 0 L 0.15625 -1.28125 L 0.546875 -1.28125 L 0.546875 -4.78125 L 0.15625 -4.78125 L 0.15625 -6.046875 L 2.96875 -6.046875 L 5.015625 -2.9375 L 5.015625 -4.78125 L 4.640625 -4.78125 Z M 4.640625 -6.046875 "></path></g></g></g><g fill="#b72025" fill-opacity="1"><g transform="translate(52.06561, 9.251067)"><g></g></g></g><g fill="#b72025" fill-opacity="1"><g transform="translate(54.402001, 9.251067)"><g><path d="M 6.375 -4.78125 L 5.984375 -4.78125 L 5.984375 -1.28125 L 6.375 -1.28125 L 6.375 0 L 3.4375 0 L 3.4375 -1.28125 L 3.8125 -1.28125 L 3.8125 -2.5625 L 2.71875 -2.5625 L 2.71875 -1.28125 L 3.09375 -1.28125 L 3.09375 0 L 0.15625 0 L 0.15625 -1.28125 L 0.546875 -1.28125 L 0.546875 -4.78125 L 0.15625 -4.78125 L 0.15625 -6.046875 L 3.09375 -6.046875 L 3.09375 -4.78125 L 2.71875 -4.78125 L 2.71875 -3.59375 L 3.8125 -3.59375 L 3.8125 -4.78125 L 3.4375 -4.78125 L 3.4375 -6.046875 L 6.375 -6.046875 Z M 6.375 -4.78125 "></path></g></g></g><g fill="#b72025" fill-opacity="1"><g transform="translate(60.943899, 9.251067)"><g><path d="M 3.078125 0.109375 C 2.128906 0.109375 1.394531 -0.140625 0.875 -0.640625 C 0.363281 -1.140625 0.109375 -1.9375 0.109375 -3.03125 C 0.109375 -4.125 0.363281 -4.914062 0.875 -5.40625 C 1.394531 -5.90625 2.128906 -6.15625 3.078125 -6.15625 C 4.023438 -6.15625 4.753906 -5.90625 5.265625 -5.40625 C 5.785156 -4.914062 6.046875 -4.125 6.046875 -3.03125 C 6.046875 -1.9375 5.785156 -1.140625 5.265625 -0.640625 C 4.753906 -0.140625 4.023438 0.109375 3.078125 0.109375 Z M 3.078125 -1.28125 C 3.253906 -1.28125 3.382812 -1.328125 3.46875 -1.421875 C 3.5625 -1.515625 3.609375 -1.660156 3.609375 -1.859375 L 3.609375 -4.203125 C 3.609375 -4.398438 3.5625 -4.546875 3.46875 -4.640625 C 3.382812 -4.734375 3.253906 -4.78125 3.078125 -4.78125 C 2.898438 -4.78125 2.765625 -4.734375 2.671875 -4.640625 C 2.585938 -4.546875 2.546875 -4.398438 2.546875 -4.203125 L 2.546875 -1.859375 C 2.546875 -1.648438 2.585938 -1.5 2.671875 -1.40625 C 2.765625 -1.320312 2.898438 -1.28125 3.078125 -1.28125 Z M 2.390625 1.75 L 2.390625 0.546875 L 3.765625 0.546875 L 3.765625 1.75 Z M 2.390625 1.75 "></path></g></g></g><g fill="#b72025" fill-opacity="1"><g transform="translate(67.111971, 9.251067)"><g><path d="M 3.171875 0.109375 C 2.191406 0.109375 1.4375 -0.140625 0.90625 -0.640625 C 0.375 -1.140625 0.109375 -1.9375 0.109375 -3.03125 C 0.109375 -5.113281 1.125 -6.15625 3.15625 -6.15625 C 3.644531 -6.15625 4.101562 -6.097656 4.53125 -5.984375 C 4.957031 -5.867188 5.273438 -5.738281 5.484375 -5.59375 L 5.484375 -3.640625 L 3.609375 -3.640625 L 3.609375 -4.203125 C 3.609375 -4.398438 3.5625 -4.546875 3.46875 -4.640625 C 3.382812 -4.734375 3.253906 -4.78125 3.078125 -4.78125 C 2.898438 -4.78125 2.765625 -4.734375 2.671875 -4.640625 C 2.585938 -4.546875 2.546875 -4.398438 2.546875 -4.203125 L 2.546875 -1.859375 C 2.546875 -1.660156 2.585938 -1.515625 2.671875 -1.421875 C 2.765625 -1.328125 2.898438 -1.28125 3.078125 -1.28125 C 3.253906 -1.28125 3.382812 -1.328125 3.46875 -1.421875 C 3.5625 -1.515625 3.609375 -1.660156 3.609375 -1.859375 L 3.609375 -2.484375 L 5.484375 -2.484375 L 5.484375 -0.46875 C 5.265625 -0.320312 4.945312 -0.1875 4.53125 -0.0625 C 4.113281 0.0507812 3.660156 0.109375 3.171875 0.109375 Z M 3.171875 0.109375 "></path></g></g></g></g></g><g transform="matrix(1, 0, 0, 1, 50, 15)"><g clip-path="url(#538a76bd58)"><g clip-path="url(#196bd22daa)"><g fill="#ffffff" fill-opacity="1"><g transform="translate(0.468578, 5.539079)"><g><path d="M 1.6875 -3.265625 C 1.914062 -3.265625 2.113281 -3.222656 2.28125 -3.140625 C 2.445312 -3.054688 2.570312 -2.9375 2.65625 -2.78125 C 2.75 -2.625 2.796875 -2.441406 2.796875 -2.234375 C 2.796875 -2.035156 2.75 -1.859375 2.65625 -1.703125 C 2.570312 -1.546875 2.445312 -1.425781 2.28125 -1.34375 C 2.113281 -1.257812 1.914062 -1.21875 1.6875 -1.21875 L 1.078125 -1.21875 L 1.078125 0 L 0.421875 0 L 0.421875 -3.265625 Z M 1.609375 -1.734375 C 1.960938 -1.734375 2.140625 -1.898438 2.140625 -2.234375 C 2.140625 -2.578125 1.960938 -2.75 1.609375 -2.75 L 1.078125 -2.75 L 1.078125 -1.734375 Z M 1.609375 -1.734375 "></path></g></g></g></g><g fill="#ffffff" fill-opacity="1"><g transform="translate(3.450042, 5.539079)"><g><path d="M 2.53125 -2.03125 L 2.53125 -3.265625 L 3.171875 -3.265625 L 3.171875 0 L 2.53125 0 L 2.53125 -1.484375 L 1.078125 -1.484375 L 1.078125 0 L 0.421875 0 L 0.421875 -3.265625 L 1.078125 -3.265625 L 1.078125 -2.03125 Z M 2.53125 -2.03125 "></path></g></g></g><g fill="#ffffff" fill-opacity="1"><g transform="translate(7.049668, 5.539079)"><g><path d="M 3.140625 0 L 2.453125 0 L 2.203125 -0.75 L 0.953125 -0.75 L 0.71875 0 L 0.046875 0 L 1.171875 -3.265625 L 2 -3.265625 Z M 1.546875 -2.59375 L 1.140625 -1.296875 L 2.03125 -1.296875 L 1.609375 -2.59375 Z M 1.796875 -3.453125 L 1.359375 -3.453125 L 1.359375 -3.5 L 1.671875 -4.125 L 2.375 -4.125 L 2.375 -4.078125 Z M 1.796875 -3.453125 "></path></g></g></g><g fill="#ffffff" fill-opacity="1"><g transform="translate(9.939483, 5.539079)"><g><path d="M 2.625 -3.265625 L 2.625 -2.71875 L 1.671875 -2.71875 L 1.671875 0 L 1.03125 0 L 1.03125 -2.71875 L 0.09375 -2.71875 L 0.09375 -3.265625 Z M 2.625 -3.265625 "></path></g></g></g><g fill="#ffffff" fill-opacity="1"><g transform="translate(12.644223, 5.539079)"><g></g></g></g><g fill="#ffffff" fill-opacity="1"><g transform="translate(13.722103, 5.539079)"><g><path d="M 2.625 -3.265625 L 2.625 -2.71875 L 1.671875 -2.71875 L 1.671875 0 L 1.03125 0 L 1.03125 -2.71875 L 0.09375 -2.71875 L 0.09375 -3.265625 Z M 2.625 -3.265625 "></path></g></g></g><g fill="#ffffff" fill-opacity="1"><g transform="translate(16.426843, 5.539079)"><g><path d="M 0.421875 0 L 0.421875 -3.265625 L 1.734375 -3.265625 C 2.078125 -3.265625 2.332031 -3.1875 2.5 -3.03125 C 2.675781 -2.875 2.765625 -2.660156 2.765625 -2.390625 C 2.765625 -2.191406 2.710938 -2.03125 2.609375 -1.90625 C 2.503906 -1.78125 2.351562 -1.679688 2.15625 -1.609375 L 2.15625 -1.5625 C 2.257812 -1.519531 2.34375 -1.453125 2.40625 -1.359375 C 2.46875 -1.273438 2.53125 -1.144531 2.59375 -0.96875 L 2.921875 0 L 2.25 0 L 1.9375 -0.984375 C 1.894531 -1.078125 1.851562 -1.148438 1.8125 -1.203125 C 1.78125 -1.253906 1.726562 -1.289062 1.65625 -1.3125 C 1.59375 -1.34375 1.515625 -1.359375 1.421875 -1.359375 L 1.078125 -1.359375 L 1.078125 0 Z M 1.65625 -1.875 C 1.96875 -1.875 2.125 -2.019531 2.125 -2.3125 C 2.125 -2.601562 1.96875 -2.75 1.65625 -2.75 L 1.078125 -2.75 L 1.078125 -1.875 Z M 1.65625 -1.875 "></path></g></g></g><g fill="#ffffff" fill-opacity="1"><g transform="translate(19.477487, 5.539079)"><g><path d="M 1.078125 0 L 0.421875 0 L 0.421875 -3.265625 L 1.078125 -3.265625 Z M 1.078125 0 "></path></g></g></g><g clip-path="url(#d07d505d2b)"><g fill="#ffffff" fill-opacity="1"><g transform="translate(20.972682, 5.539079)"><g><path d="M 2.296875 0 L 0.40625 0 L 0.40625 -3.265625 L 2.296875 -3.265625 L 2.296875 -2.703125 L 1.109375 -2.703125 L 1.109375 -1.984375 L 2.21875 -1.984375 L 2.21875 -1.421875 L 1.109375 -1.421875 L 1.109375 -0.578125 L 2.296875 -0.578125 Z M 2.171875 -4.734375 C 2.304688 -4.734375 2.414062 -4.707031 2.5 -4.65625 C 2.582031 -4.601562 2.625 -4.519531 2.625 -4.40625 C 2.625 -4.3125 2.597656 -4.238281 2.546875 -4.1875 C 2.503906 -4.132812 2.4375 -4.101562 2.34375 -4.09375 L 2.34375 -3.953125 L 2.046875 -3.953125 L 2.03125 -4.21875 C 2.132812 -4.21875 2.203125 -4.226562 2.234375 -4.25 C 2.273438 -4.28125 2.296875 -4.3125 2.296875 -4.34375 C 2.296875 -4.375 2.28125 -4.398438 2.25 -4.421875 C 2.226562 -4.453125 2.1875 -4.46875 2.125 -4.46875 C 2.09375 -4.46875 2.0625 -4.460938 2.03125 -4.453125 C 2 -4.453125 1.976562 -4.445312 1.96875 -4.4375 L 1.96875 -4.71875 C 1.988281 -4.726562 2.054688 -4.734375 2.171875 -4.734375 Z M 1.703125 -4.21875 C 1.773438 -4.113281 1.851562 -4.003906 1.9375 -3.890625 C 2.019531 -3.773438 2.101562 -3.671875 2.1875 -3.578125 L 2.1875 -3.53125 L 1.8125 -3.53125 C 1.738281 -3.570312 1.660156 -3.625 1.578125 -3.6875 C 1.503906 -3.757812 1.425781 -3.828125 1.34375 -3.890625 C 1.269531 -3.828125 1.191406 -3.757812 1.109375 -3.6875 C 1.023438 -3.625 0.945312 -3.570312 0.875 -3.53125 L 0.515625 -3.53125 L 0.515625 -3.578125 C 0.585938 -3.671875 0.664062 -3.773438 0.75 -3.890625 C 0.84375 -4.003906 0.925781 -4.113281 1 -4.21875 Z M 1.703125 -4.21875 "></path></g></g></g></g><g fill="#ffffff" fill-opacity="1"><g transform="translate(23.532097, 5.539079)"><g><path d="M 1.046875 0 L 0.421875 0 L 0.421875 -3.265625 L 1.171875 -3.265625 L 2.484375 -1.15625 L 2.53125 -1.171875 L 2.53125 -3.265625 L 3.15625 -3.265625 L 3.15625 0 L 2.5 0 L 1.109375 -2.25 L 1.046875 -2.234375 Z M 1.046875 0 "></path></g></g></g><g fill="#ffffff" fill-opacity="1"><g transform="translate(27.109406, 5.539079)"><g></g></g></g><g fill="#ffffff" fill-opacity="1"><g transform="translate(28.187285, 5.539079)"><g><path d="M 2.625 -3.265625 L 2.625 -2.71875 L 1.671875 -2.71875 L 1.671875 0 L 1.03125 0 L 1.03125 -2.71875 L 0.09375 -2.71875 L 0.09375 -3.265625 Z M 2.625 -3.265625 "></path></g></g></g><g fill="#ffffff" fill-opacity="1"><g transform="translate(30.892026, 5.539079)"><g><path d="M 0.421875 0 L 0.421875 -3.265625 L 1.734375 -3.265625 C 2.078125 -3.265625 2.332031 -3.1875 2.5 -3.03125 C 2.675781 -2.875 2.765625 -2.660156 2.765625 -2.390625 C 2.765625 -2.191406 2.710938 -2.03125 2.609375 -1.90625 C 2.503906 -1.78125 2.351562 -1.679688 2.15625 -1.609375 L 2.15625 -1.5625 C 2.257812 -1.519531 2.34375 -1.453125 2.40625 -1.359375 C 2.46875 -1.273438 2.53125 -1.144531 2.59375 -0.96875 L 2.921875 0 L 2.25 0 L 1.9375 -0.984375 C 1.894531 -1.078125 1.851562 -1.148438 1.8125 -1.203125 C 1.78125 -1.253906 1.726562 -1.289062 1.65625 -1.3125 C 1.59375 -1.34375 1.515625 -1.359375 1.421875 -1.359375 L 1.078125 -1.359375 L 1.078125 0 Z M 1.65625 -1.875 C 1.96875 -1.875 2.125 -2.019531 2.125 -2.3125 C 2.125 -2.601562 1.96875 -2.75 1.65625 -2.75 L 1.078125 -2.75 L 1.078125 -1.875 Z M 1.65625 -1.875 "></path></g></g></g><g fill="#ffffff" fill-opacity="1"><g transform="translate(33.94267, 5.539079)"><g><path d="M 1.078125 0 L 0.421875 0 L 0.421875 -3.265625 L 1.078125 -3.265625 Z M 1.078125 0 "></path></g></g></g><g fill="#ffffff" fill-opacity="1"><g transform="translate(35.437864, 5.539079)"><g></g></g></g><g fill="#ffffff" fill-opacity="1"><g transform="translate(36.515744, 5.539079)"><g><path d="M 2.625 -3.265625 L 2.625 -2.71875 L 1.671875 -2.71875 L 1.671875 0 L 1.03125 0 L 1.03125 -2.71875 L 0.09375 -2.71875 L 0.09375 -3.265625 Z M 2.625 -3.265625 "></path></g></g></g><g fill="#ffffff" fill-opacity="1"><g transform="translate(39.220484, 5.539079)"><g><path d="M 2.53125 -2.03125 L 2.53125 -3.265625 L 3.171875 -3.265625 L 3.171875 0 L 2.53125 0 L 2.53125 -1.484375 L 1.078125 -1.484375 L 1.078125 0 L 0.421875 0 L 0.421875 -3.265625 L 1.078125 -3.265625 L 1.078125 -2.03125 Z M 2.53125 -2.03125 "></path></g></g></g><g fill="#ffffff" fill-opacity="1"><g transform="translate(42.820109, 5.539079)"><g><path d="M 3.078125 -3.265625 L 3.078125 -2.84375 C 3.179688 -2.882812 3.257812 -2.957031 3.3125 -3.0625 C 3.363281 -3.175781 3.390625 -3.316406 3.390625 -3.484375 L 4.0625 -3.484375 L 4.09375 -3.421875 C 4.0625 -3.265625 4.007812 -3.113281 3.9375 -2.96875 C 3.875 -2.832031 3.773438 -2.71875 3.640625 -2.625 C 3.503906 -2.53125 3.316406 -2.46875 3.078125 -2.4375 L 3.078125 -1.15625 C 3.078125 -0.925781 3.023438 -0.71875 2.921875 -0.53125 C 2.828125 -0.351562 2.675781 -0.210938 2.46875 -0.109375 C 2.269531 -0.00390625 2.019531 0.046875 1.71875 0.046875 C 1.28125 0.046875 0.945312 -0.0625 0.71875 -0.28125 C 0.5 -0.507812 0.390625 -0.800781 0.390625 -1.15625 L 0.390625 -3.265625 L 1.078125 -3.265625 L 1.078125 -1.21875 C 1.078125 -0.96875 1.128906 -0.789062 1.234375 -0.6875 C 1.347656 -0.582031 1.515625 -0.53125 1.734375 -0.53125 C 1.960938 -0.53125 2.125 -0.585938 2.21875 -0.703125 C 2.320312 -0.816406 2.375 -0.988281 2.375 -1.21875 L 2.375 -3.265625 Z M 2.609375 -4.265625 L 2.609375 -4.234375 C 2.566406 -4.179688 2.507812 -4.125 2.4375 -4.0625 C 2.375 -4.007812 2.300781 -3.945312 2.21875 -3.875 C 2.132812 -3.8125 2.050781 -3.75 1.96875 -3.6875 C 1.894531 -3.625 1.832031 -3.578125 1.78125 -3.546875 L 1.328125 -3.546875 L 1.328125 -3.59375 C 1.367188 -3.65625 1.421875 -3.722656 1.484375 -3.796875 C 1.554688 -3.878906 1.625 -3.960938 1.6875 -4.046875 C 1.75 -4.128906 1.800781 -4.203125 1.84375 -4.265625 Z M 2.609375 -4.265625 "></path></g></g></g><g fill="#ffffff" fill-opacity="1"><g transform="translate(46.864901, 5.539079)"><g><path d="M 1.78125 0.046875 C 1.476562 0.046875 1.210938 -0.015625 0.984375 -0.140625 C 0.753906 -0.265625 0.570312 -0.453125 0.4375 -0.703125 C 0.3125 -0.953125 0.25 -1.265625 0.25 -1.640625 C 0.25 -2.003906 0.3125 -2.3125 0.4375 -2.5625 C 0.570312 -2.8125 0.753906 -3 0.984375 -3.125 C 1.210938 -3.25 1.476562 -3.3125 1.78125 -3.3125 C 2.09375 -3.3125 2.359375 -3.25 2.578125 -3.125 C 2.804688 -3.007812 2.96875 -2.820312 3.0625 -2.5625 L 2.59375 -2.28125 L 2.53125 -2.28125 C 2.457031 -2.445312 2.359375 -2.566406 2.234375 -2.640625 C 2.117188 -2.722656 1.96875 -2.765625 1.78125 -2.765625 C 1.507812 -2.765625 1.296875 -2.671875 1.140625 -2.484375 C 0.992188 -2.304688 0.921875 -2.023438 0.921875 -1.640625 C 0.921875 -1.242188 0.992188 -0.957031 1.140625 -0.78125 C 1.296875 -0.601562 1.507812 -0.515625 1.78125 -0.515625 C 2.207031 -0.515625 2.46875 -0.71875 2.5625 -1.125 L 2.625 -1.125 L 3.09375 -0.890625 C 3.007812 -0.578125 2.859375 -0.34375 2.640625 -0.1875 C 2.421875 -0.03125 2.132812 0.046875 1.78125 0.046875 Z M 1.78125 0.046875 "></path></g></g></g><g fill="#ffffff" fill-opacity="1"><g transform="translate(50.065064, 5.539079)"><g></g></g></g><g fill="#ffffff" fill-opacity="1"><g transform="translate(51.142943, 5.539079)"><g><path d="M 1.9375 0 L 1.15625 0 L 0.0625 -3.265625 L 0.75 -3.265625 L 1.53125 -0.828125 L 1.59375 -0.828125 L 2.375 -3.265625 L 3.046875 -3.265625 Z M 1.9375 0 "></path></g></g></g><g fill="#ffffff" fill-opacity="1"><g transform="translate(54.240451, 5.539079)"><g><path d="M 1.078125 0 L 0.421875 0 L 0.421875 -3.265625 L 1.078125 -3.265625 Z M 1.078125 0 "></path></g></g></g><g fill="#ffffff" fill-opacity="1"><g transform="translate(55.735644, 5.539079)"><g><path d="M 2.296875 0 L 0.40625 0 L 0.40625 -3.265625 L 2.296875 -3.265625 L 2.296875 -2.703125 L 1.109375 -2.703125 L 1.109375 -1.984375 L 2.21875 -1.984375 L 2.21875 -1.421875 L 1.109375 -1.421875 L 1.109375 -0.578125 L 2.296875 -0.578125 Z M 1.375 0.96875 C 1.269531 0.96875 1.179688 0.941406 1.109375 0.890625 C 1.046875 0.835938 1.015625 0.75 1.015625 0.625 C 1.015625 0.5 1.046875 0.410156 1.109375 0.359375 C 1.179688 0.316406 1.269531 0.296875 1.375 0.296875 C 1.476562 0.296875 1.566406 0.316406 1.640625 0.359375 C 1.710938 0.410156 1.75 0.5 1.75 0.625 C 1.75 0.75 1.710938 0.835938 1.640625 0.890625 C 1.566406 0.941406 1.476562 0.96875 1.375 0.96875 Z M 1.78125 -4.265625 C 1.820312 -4.203125 1.878906 -4.128906 1.953125 -4.046875 C 2.023438 -3.960938 2.097656 -3.878906 2.171875 -3.796875 C 2.242188 -3.722656 2.304688 -3.65625 2.359375 -3.59375 L 2.359375 -3.546875 L 1.90625 -3.546875 C 1.820312 -3.585938 1.734375 -3.640625 1.640625 -3.703125 C 1.546875 -3.773438 1.460938 -3.851562 1.390625 -3.9375 C 1.304688 -3.851562 1.21875 -3.773438 1.125 -3.703125 C 1.03125 -3.640625 0.945312 -3.585938 0.875 -3.546875 L 0.421875 -3.546875 L 0.421875 -3.59375 C 0.472656 -3.65625 0.535156 -3.722656 0.609375 -3.796875 C 0.679688 -3.878906 0.75 -3.960938 0.8125 -4.046875 C 0.882812 -4.128906 0.941406 -4.203125 0.984375 -4.265625 Z M 1.78125 -4.265625 "></path></g></g></g><g fill="#ffffff" fill-opacity="1"><g transform="translate(58.295054, 5.539079)"><g><path d="M 2.625 -3.265625 L 2.625 -2.71875 L 1.671875 -2.71875 L 1.671875 0 L 1.03125 0 L 1.03125 -2.71875 L 0.09375 -2.71875 L 0.09375 -3.265625 Z M 2.625 -3.265625 "></path></g></g></g></g></g></svg>